<svg id="Warstwa_1" data-name="Warstwa 1" xmlns="http://www.w3.org/2000/svg" viewBox="0 0 708.66 283.46"><defs><style>.cls-1{fill:#231f20;}.cls-2,.cls-3,.cls-4,.cls-5,.cls-6{fill:none;stroke:#fff;}.cls-2{stroke-miterlimit:10;}.cls-3{stroke-miterlimit:10;}.cls-4{stroke-miterlimit:10;}.cls-5{stroke-miterlimit:10;}.cls-6{stroke-miterlimit:10;}</style></defs><title>Obszar roboczy 1</title><g id="K_Left" data-name="K Left"><g id="Keycap"><rect class="cls-1" x="424.85" y="45.88" width="40.37" height="40.37" rx="3.54"/><rect class="cls-2" x="424.85" y="45.88" width="40.37" height="40.37" rx="3.54"/></g><g id="Keycap-2"><rect class="cls-1" x="424.85" y="93.63" width="40.37" height="40.37" rx="3.54"/><rect class="cls-2" x="424.85" y="93.63" width="40.37" height="40.37" rx="3.54"/></g><g id="Keycap-3"><rect class="cls-1" x="424.85" y="141.38" width="40.37" height="40.37" rx="3.54"/><rect class="cls-2" x="424.85" y="141.38" width="40.37" height="40.37" rx="3.54"/></g><g id="Keycap-4"><rect class="cls-1" x="476" y="38.5" width="40.37" height="40.37" rx="3.54"/><rect class="cls-2" x="476" y="38.5" width="40.37" height="40.37" rx="3.54"/></g><g id="Keycap-5"><rect class="cls-1" x="476" y="86.25" width="40.37" height="40.37" rx="3.54"/><rect class="cls-2" x="476" y="86.25" width="40.37" height="40.37" rx="3.54"/></g><g id="Keycap-6"><rect class="cls-1" x="476" y="134" width="40.37" height="40.37" rx="3.54"/><rect class="cls-2" x="476" y="134" width="40.37" height="40.37" rx="3.54"/></g><g id="Keycap-7"><rect class="cls-1" x="527.14" y="23.34" width="40.37" height="40.37" rx="3.54"/><rect class="cls-2" x="527.14" y="23.34" width="40.37" height="40.37" rx="3.54"/></g><g id="Keycap-8"><rect class="cls-1" x="527.14" y="71.09" width="40.37" height="40.37" rx="3.54"/><rect class="cls-2" x="527.14" y="71.09" width="40.37" height="40.37" rx="3.54"/></g><g id="Keycap-9"><rect class="cls-1" x="527.14" y="118.84" width="40.37" height="40.37" rx="3.54"/><rect class="cls-2" x="527.14" y="118.84" width="40.37" height="40.37" rx="3.54"/></g><g id="Keycap-10"><rect class="cls-1" x="577.83" y="43.53" width="40.37" height="40.37" rx="3.54"/><rect class="cls-2" x="577.83" y="43.53" width="40.37" height="40.37" rx="3.54"/></g><g id="Keycap-11"><rect class="cls-1" x="577.83" y="91.28" width="40.37" height="40.37" rx="3.54"/><rect class="cls-2" x="577.83" y="91.28" width="40.37" height="40.37" rx="3.54"/></g><g id="Keycap-12"><rect class="cls-1" x="577.83" y="139.03" width="40.37" height="40.37" rx="3.54"/><rect class="cls-2" x="577.83" y="139.03" width="40.37" height="40.37" rx="3.54"/></g><g id="Keycap-13"><rect class="cls-1" x="629.03" y="76.77" width="40.37" height="40.37" rx="3.54"/><rect class="cls-2" x="629.03" y="76.77" width="40.37" height="40.37" rx="3.54"/></g><g id="Keycap-14"><rect class="cls-1" x="629.03" y="124.52" width="40.37" height="40.37" rx="3.54"/><rect class="cls-2" x="629.03" y="124.52" width="40.37" height="40.37" rx="3.54"/></g><g id="Keycap-15"><rect class="cls-1" x="629.03" y="172.27" width="40.37" height="40.37" rx="3.54"/><rect class="cls-2" x="629.03" y="172.27" width="40.37" height="40.37" rx="3.54"/></g><g id="Keycap-16"><rect class="cls-1" x="395.41" y="214.64" width="40.37" height="40.37" rx="3.54" transform="translate(-61.74 231.01) rotate(-29.01)"/><rect class="cls-3" x="395.41" y="214.64" width="40.37" height="40.37" rx="3.54" transform="translate(-61.74 231.01) rotate(-29.01)"/></g><g id="Keycap-17"><rect class="cls-1" x="448.24" y="189.93" width="40.37" height="40.37" rx="3.54" transform="translate(-40.09 139.56) rotate(-16.26)"/><rect class="cls-4" x="448.24" y="189.93" width="40.37" height="40.37" rx="3.54" transform="translate(-40.09 139.56) rotate(-16.26)"/></g></g><g id="K_Right" data-name="K Right"><g id="Keycap-18"><rect class="cls-1" x="243.88" y="45.88" width="40.37" height="40.37" rx="3.54"/><rect class="cls-2" x="243.88" y="45.88" width="40.37" height="40.37" rx="3.54"/></g><g id="Keycap-19"><rect class="cls-1" x="243.88" y="93.63" width="40.37" height="40.37" rx="3.54"/><rect class="cls-2" x="243.88" y="93.63" width="40.37" height="40.37" rx="3.54"/></g><g id="Keycap-20"><rect class="cls-1" x="243.88" y="141.39" width="40.37" height="40.37" rx="3.54"/><rect class="cls-2" x="243.88" y="141.39" width="40.37" height="40.37" rx="3.54"/></g><g id="Keycap-21"><rect class="cls-1" x="192.73" y="38.51" width="40.37" height="40.37" rx="3.54"/><rect class="cls-2" x="192.73" y="38.51" width="40.37" height="40.37" rx="3.54"/></g><g id="Keycap-22"><rect class="cls-1" x="192.73" y="86.26" width="40.37" height="40.37" rx="3.54"/><rect class="cls-2" x="192.73" y="86.26" width="40.37" height="40.37" rx="3.54"/></g><g id="Keycap-23"><rect class="cls-1" x="192.73" y="134.01" width="40.37" height="40.37" rx="3.54"/><rect class="cls-2" x="192.73" y="134.01" width="40.37" height="40.37" rx="3.54"/></g><g id="Keycap-24"><rect class="cls-1" x="141.6" y="23.35" width="40.37" height="40.37" rx="3.54"/><rect class="cls-2" x="141.6" y="23.35" width="40.37" height="40.37" rx="3.54"/></g><g id="Keycap-25"><rect class="cls-1" x="141.6" y="71.1" width="40.37" height="40.37" rx="3.54"/><rect class="cls-2" x="141.6" y="71.1" width="40.37" height="40.37" rx="3.54"/></g><g id="Keycap-26"><rect class="cls-1" x="141.6" y="118.85" width="40.37" height="40.37" rx="3.54"/><rect class="cls-2" x="141.6" y="118.85" width="40.37" height="40.37" rx="3.54"/></g><g id="Keycap-27"><rect class="cls-1" x="90.9" y="43.53" width="40.37" height="40.37" rx="3.54"/><rect class="cls-2" x="90.9" y="43.53" width="40.37" height="40.37" rx="3.54"/></g><g id="Keycap-28"><rect class="cls-1" x="90.9" y="91.28" width="40.37" height="40.37" rx="3.54"/><rect class="cls-2" x="90.9" y="91.28" width="40.37" height="40.37" rx="3.54"/></g><g id="Keycap-29"><rect class="cls-1" x="90.9" y="139.03" width="40.37" height="40.37" rx="3.54"/><rect class="cls-2" x="90.9" y="139.03" width="40.37" height="40.37" rx="3.54"/></g><g id="Keycap-30"><rect class="cls-1" x="39.7" y="76.77" width="40.37" height="40.37" rx="3.54"/><rect class="cls-2" x="39.7" y="76.77" width="40.37" height="40.37" rx="3.54"/></g><g id="Keycap-31"><rect class="cls-1" x="39.7" y="124.53" width="40.37" height="40.37" rx="3.54"/><rect class="cls-2" x="39.7" y="124.53" width="40.37" height="40.37" rx="3.54"/></g><g id="Keycap-32"><rect class="cls-1" x="39.7" y="172.28" width="40.37" height="40.37" rx="3.54"/><rect class="cls-2" x="39.7" y="172.28" width="40.37" height="40.37" rx="3.54"/></g><g id="Keycap-33"><rect class="cls-1" x="273.3" y="214.62" width="40.37" height="40.37" rx="3.54" transform="translate(-54.19 377.6) rotate(-60.99)"/><rect class="cls-5" x="273.3" y="214.62" width="40.37" height="40.37" rx="3.54" transform="translate(-54.19 377.6) rotate(-60.99)"/></g><g id="Keycap-34"><rect class="cls-1" x="220.73" y="191.45" width="40.37" height="40.37" rx="3.54" transform="translate(-29.19 384.46) rotate(-73.91)"/><rect class="cls-6" x="220.73" y="191.45" width="40.37" height="40.37" rx="3.54" transform="translate(-29.19 384.46) rotate(-73.91)"/></g></g></svg>